<?xml version="1.0" encoding="UTF-8"?>
<svg id="text" xmlns="http://www.w3.org/2000/svg" xmlns:xlink="http://www.w3.org/1999/xlink" viewBox="0 0 1024.65 849.14">
  <defs>
    <style>
      .cls-1 {
        fill: #fff;
      }

      .cls-2 {
        fill: url(#Gradient_bez_nazwy_14);
      }
    </style>
    <linearGradient id="Gradient_bez_nazwy_14" data-name="Gradient bez nazwy 14" x1="512.32" y1="0" x2="512.32" y2="849.14" gradientUnits="userSpaceOnUse">
      <stop offset="0" stop-color="#29abe2"/>
      <stop offset="1" stop-color="#005bbc"/>
    </linearGradient>
  </defs>
  <path class="cls-2" d="m915.12,0H109.52C49.04,0,0,49.04,0,109.52v471.23c0,60.49,49.04,109.52,109.52,109.52h154.48v158.86l248.32-158.86h402.8c60.49,0,109.52-49.04,109.52-109.52V109.52c0-60.49-49.04-109.52-109.52-109.52Z"/>
  <g>
    <path class="cls-1" d="m250.22,148.29c3.84,7.36,8.96,23.69,8.96,44.5,0,46.74-31.69,77.15-79.07,77.15s-82.27-32.65-82.27-83.23c0-16.65,4.16-31.37,8-39.06l21.77,6.4c-3.84,6.72-7.36,17.29-7.36,32.65,0,35.53,26.25,54.74,58.58,54.74,35.85,0,57.94-23.05,57.94-53.78,0-16.01-4.16-26.57-7.68-34.57l21.13-4.8Z"/>
    <path class="cls-1" d="m126.65,122.05c-11.84,0-20.17-8-20.17-19.21s8.32-18.57,20.17-18.89c11.2,0,19.85,7.36,19.85,19.21,0,11.2-8.64,18.89-19.85,18.89Zm113.01,0c-11.85,0-20.17-8-20.17-19.21s8.32-18.57,20.17-18.89c11.2,0,19.85,7.36,19.85,19.21,0,11.2-8.64,18.89-19.85,18.89Z"/>
  </g>
</svg>