<?xml version="1.0" encoding="utf-8"?>
<!-- Generator: Adobe Illustrator 27.9.0, SVG Export Plug-In . SVG Version: 6.00 Build 0)  -->
<svg version="1.1" xmlns="http://www.w3.org/2000/svg" xmlns:xlink="http://www.w3.org/1999/xlink" x="0px" y="0px" width="1920px"
	 height="2167.519px" viewBox="0 0 1920 2167.519" enable-background="new 0 0 1920 2167.519" xml:space="preserve">
<g id="bg">
	<g id="particles">
		<g>
			<g>
				<path fill="#EF990F" d="M1358.861,593.314c-1.114,0-2.216-0.331-3.025-1.591l0.089-3.92l5.715,4.042l-2.858-2.021l3.018-1.762
					c-0.777-1.324-2.191-1.811-3.183-1.709c0.438-0.046,2.52-0.438,4.931-0.891c1.741-0.327,3.881-0.729,6.393-1.191l1.265,6.885
					c-2.501,0.459-4.632,0.86-6.365,1.186c-1.759,0.331-3.114,0.585-4.034,0.747
					C1360.195,593.197,1359.526,593.314,1358.861,593.314z"/>
			</g>
			<g>
				<path fill="#EF990F" d="M1968.767,2161.719c-7.189-3.699-14.402-7.491-21.438-11.271l3.313-6.166
					c6.999,3.76,14.175,7.533,21.328,11.213L1968.767,2161.719z M1926.099,2138.791c-7.031-3.945-14.099-8-21.007-12.053
					l3.542-6.037c6.87,4.029,13.899,8.062,20.891,11.985L1926.099,2138.791z M1884.322,2114.276
					c-6.883-4.223-13.787-8.556-20.518-12.878l3.783-5.891c6.691,4.298,13.552,8.604,20.395,12.802L1884.322,2114.276z
					 M1843.559,2088.093c-6.71-4.514-13.423-9.139-19.954-13.745l4.035-5.721c6.488,4.578,13.159,9.173,19.826,13.657
					L1843.559,2088.093z M1803.965,2060.153c-6.513-4.822-13.008-9.752-19.305-14.651l4.299-5.524
					c6.254,4.865,12.704,9.762,19.172,14.551L1803.965,2060.153z M1765.715,2030.383c-6.266-5.131-12.51-10.379-18.559-15.599
					l4.573-5.299c6.003,5.18,12.201,10.389,18.42,15.481L1765.715,2030.383z M1729.013,1998.699
					c-5.996-5.462-11.951-11.039-17.698-16.578l4.857-5.041c5.701,5.494,11.607,11.026,17.555,16.444L1729.013,1998.699z
					 M1694.095,1965.038c-5.662-5.783-11.282-11.702-16.705-17.592l5.15-4.741c5.375,5.837,10.945,11.704,16.557,17.437
					L1694.095,1965.038z M1661.239,1929.335c-5.301-6.14-10.534-12.409-15.554-18.634l5.449-4.395
					c4.971,6.164,10.154,12.373,15.404,18.454L1661.239,1929.335z M1630.776,1891.538c-4.881-6.509-9.662-13.135-14.211-19.696
					l5.752-3.988c4.5,6.49,9.23,13.046,14.059,19.485L1630.776,1891.538z M1603.114,1851.606c-4.388-6.897-8.633-13.89-12.617-20.78
					l6.06-3.504c3.935,6.806,8.128,13.712,12.463,20.526L1603.114,1851.606z M1578.804,1809.493
					c-3.802-7.344-7.384-14.712-10.645-21.902l6.375-2.892c3.211,7.08,6.74,14.339,10.486,21.575L1578.804,1809.493z
					 M1558.752,1765.087c-4.031-10.589-6.449-18.493-7.767-23.26l6.747-1.865c1.278,4.621,3.627,12.3,7.562,22.635
					L1558.752,1765.087z M1543.96,1718.747c-2.285-7.759-4.398-15.666-6.281-23.503l6.806-1.635
					c1.855,7.722,3.938,15.514,6.19,23.161L1543.96,1718.747z M1532.596,1671.452c-1.484-7.931-2.785-16.014-3.866-24.021
					l6.937-0.937c1.065,7.892,2.347,15.855,3.81,23.671L1532.596,1671.452z M1526.084,1623.242
					c-0.674-8.02-1.155-16.191-1.431-24.287l6.996-0.238c0.272,7.98,0.746,16.035,1.41,23.939L1526.084,1623.242z
					 M1531.419,1574.731l-6.999-0.104c0.118-8.035,0.434-16.212,0.937-24.302l6.986,0.436
					C1531.846,1558.741,1531.535,1566.805,1531.419,1574.731z M1534.387,1526.854l-6.959-0.756
					c0.866-7.974,1.931-16.084,3.166-24.106l6.919,1.064C1536.293,1510.976,1535.242,1518.983,1534.387,1526.854z
					 M1541.673,1479.411l-6.867-1.359c1.555-7.856,3.309-15.844,5.212-23.74l6.805,1.641
					C1544.943,1463.756,1543.21,1471.648,1541.673,1479.411z M1552.914,1432.711l-6.736-1.906
					c2.177-7.693,4.551-15.516,7.056-23.249l6.659,2.158C1557.415,1417.364,1555.067,1425.101,1552.914,1432.711z M1567.714,1386.98
					l-6.578-2.394c2.731-7.506,5.657-15.135,8.698-22.677l6.492,2.617C1573.315,1371.995,1570.418,1379.55,1567.714,1386.98z
					 M1585.685,1342.371l-6.404-2.827c3.227-7.311,6.643-14.729,10.152-22.053l6.313,3.025
					C1592.268,1327.773,1588.883,1335.127,1585.685,1342.371z M1606.467,1298.972l-6.22-3.211
					c3.667-7.105,7.515-14.307,11.437-21.403l6.127,3.385C1613.921,1284.783,1610.104,1291.926,1606.467,1298.972z
					 M1629.739,1256.834l-6.034-3.549c4.045-6.876,8.275-13.856,12.574-20.747l5.939,3.705
					C1637.952,1243.082,1633.753,1250.01,1629.739,1256.834z M1655.217,1215.972l-5.845-3.852
					c4.401-6.68,8.972-13.438,13.584-20.088l5.752,3.99C1664.127,1202.626,1659.589,1209.338,1655.217,1215.972z M1682.653,1176.365
					l-5.675-4.098c4.696-6.503,9.508-13.065,14.304-19.506l5.614,4.181C1692.121,1163.356,1687.329,1169.891,1682.653,1176.365z
					 M1711.417,1137.722l-5.558-4.255c5.358-6.998,10.477-13.587,14.778-19.111l5.523,4.301
					C1721.867,1124.169,1716.759,1130.745,1711.417,1137.722z M1740.974,1099.595l-5.544-4.273
					c5.933-7.697,10.384-13.617,14.432-19.195l5.666,4.111C1751.439,1085.872,1746.951,1091.843,1740.974,1099.595z
					 M1769.268,1060.175l-5.897-3.771c4.366-6.828,8.321-13.55,12.091-20.551l6.163,3.318
					C1777.772,1046.327,1773.73,1053.198,1769.268,1060.175z M1792.396,1017.331l-6.378-2.885
					c3.137-6.936,6.166-14.157,9.258-22.074l6.521,2.547C1798.66,1002.951,1795.585,1010.282,1792.396,1017.331z M1810.177,972.154
					l-6.611-2.301c0.381-1.095,0.763-2.2,1.147-3.316c2.252-6.554,4.415-13.119,6.429-19.513l6.677,2.103
					c-2.032,6.452-4.214,13.075-6.486,19.685C1810.947,969.937,1810.561,971.05,1810.177,972.154z M1824.728,925.852l-6.744-1.876
					c2.183-7.846,4.202-15.673,6.003-23.262l6.811,1.616C1828.976,910.007,1826.934,917.921,1824.728,925.852z M1835.904,878.562
					l-6.875-1.317c1.533-7.999,2.857-15.958,3.934-23.656l6.932,0.971C1838.802,862.372,1837.459,870.448,1835.904,878.562z
					 M1842.59,830.348l-6.977-0.566c0.659-8.118,1.048-16.156,1.154-23.891l6.999,0.096
					C1843.658,813.878,1843.262,822.075,1842.59,830.348z M1836.182,782.027c-0.523-8.079-1.394-16.036-2.588-23.65l6.916-1.084
					c1.227,7.823,2.121,15.992,2.658,24.282L1836.182,782.027z M1828.725,735.143c-2.059-7.743-4.548-15.313-7.397-22.502
					l6.507-2.58c2.95,7.443,5.526,15.277,7.655,23.283L1828.725,735.143z M1811.24,691.251c-3.815-6.896-8.12-13.581-12.792-19.87
					l5.619-4.175c4.858,6.539,9.332,13.489,13.298,20.656L1811.24,691.251z M1783.115,653.384
					c-5.413-5.566-11.318-10.913-17.551-15.892l4.369-5.469c6.46,5.161,12.584,10.706,18.2,16.48L1783.115,653.384z
					 M1746.193,623.777c-6.542-4.104-13.532-8.003-20.776-11.589l3.106-6.273c7.453,3.69,14.649,7.705,21.389,11.933
					L1746.193,623.777z M1703.595,602.575c-7.207-2.814-14.803-5.446-22.577-7.823l2.046-6.694
					c7.942,2.428,15.706,5.118,23.077,7.997L1703.595,602.575z M1657.906,588.525c-7.568-1.783-15.471-3.403-23.49-4.817
					l1.215-6.894c8.149,1.437,16.184,3.084,23.88,4.897L1657.906,588.525z M1394.933,587.094l-1.095-6.914
					c7.933-1.256,16.007-2.433,24-3.497l0.924,6.938C1410.826,584.678,1402.809,585.846,1394.933,587.094z M1442.667,580.739
					l-0.751-6.959c8.055-0.87,16.18-1.642,24.147-2.294l0.571,6.977C1458.727,579.11,1450.663,579.876,1442.667,580.739z
					 M1610.681,580.141c-7.75-0.972-15.788-1.799-23.891-2.456l0.566-6.978c8.205,0.666,16.345,1.503,24.197,2.488L1610.681,580.141
					z M1490.647,576.823l-0.381-6.989c8.138-0.443,16.296-0.769,24.247-0.969l0.176,6.998
					C1506.807,576.06,1498.718,576.384,1490.647,576.823z M1562.792,576.216c-7.844-0.33-15.936-0.524-24.051-0.58l0.048-7
					c8.197,0.056,16.371,0.253,24.296,0.585L1562.792,576.216z"/>
			</g>
		</g>
		<g>
			<path fill="#EF990F" d="M469.222,556.951c-7.843-0.105-15.966-0.364-24.142-0.77l0.346-6.991
				c8.092,0.401,16.13,0.657,23.89,0.762L469.222,556.951z M493.366,556.79l-0.197-6.997c8.216-0.231,16.219-0.652,23.789-1.251
				l0.552,6.979C509.823,556.129,501.7,556.555,493.366,556.79z M420.991,554.593c-7.909-0.649-15.991-1.436-24.019-2.338
				l0.782-6.956c7.959,0.895,15.97,1.675,23.81,2.318L420.991,554.593z M373.037,549.21c-7.908-1.121-15.928-2.374-23.836-3.724
				l1.178-6.9c7.843,1.339,15.797,2.582,23.64,3.693L373.037,549.21z M325.48,541.091c-7.895-1.58-15.843-3.29-23.621-5.082
				l1.572-6.821c7.712,1.777,15.593,3.473,23.422,5.039L325.48,541.091z M278.427,530.237c-7.819-2.052-15.631-4.234-23.218-6.487
				l1.992-6.711c7.516,2.231,15.255,4.394,23.002,6.427L278.427,530.237z M232.185,516.487c-7.728-2.586-15.385-5.308-22.758-8.088
				l2.47-6.55c7.292,2.75,14.865,5.441,22.51,8L232.185,516.487z M186.994,499.409c-7.553-3.216-14.963-6.577-22.025-9.988
				l3.045-6.303c6.962,3.363,14.27,6.677,21.722,9.851L186.994,499.409z M143.463,478.313c-7.241-4-14.251-8.166-20.835-12.378
				l3.773-5.896c6.458,4.132,13.338,8.219,20.447,12.147L143.463,478.313z M102.686,452.101
				c-6.663-5.026-12.965-10.244-18.73-15.509l4.72-5.169c5.604,5.118,11.736,10.194,18.225,15.089L102.686,452.101z M66.9,419.178
				c-5.505-6.337-10.461-12.899-14.728-19.504l5.88-3.799c4.089,6.329,8.843,12.624,14.133,18.712L66.9,419.178z M40.619,378.064
				c-3.256-7.617-5.772-15.482-7.479-23.375l6.842-1.479c1.613,7.459,3.993,14.896,7.073,22.104L40.619,378.064z M30.305,330.354
				c-0.119-3.47-0.179-6.969-0.179-10.4c0-4.641,0.111-9.31,0.328-13.877l6.992,0.334c-0.213,4.456-0.321,9.013-0.321,13.543
				c0,3.352,0.059,6.77,0.175,10.16L30.305,330.354z M39.606,282.849l-6.935-0.95c1.105-8.065,2.591-16.105,4.417-23.897
				l6.815,1.598C42.127,267.178,40.681,275,39.606,282.849z M50.413,236.88l-6.626-2.258c2.613-7.668,5.639-15.275,8.993-22.61
				l6.366,2.911C55.889,222.046,52.951,229.433,50.413,236.88z M70.048,193.954l-6.04-3.538c4.076-6.958,8.564-13.81,13.34-20.362
				l5.657,4.123C78.366,180.542,74.007,187.196,70.048,193.954z M97.862,155.768l-5.225-4.658
				c5.387-6.043,11.129-11.887,17.068-17.369l4.748,5.144C108.68,144.214,103.098,149.894,97.862,155.768z M132.624,123.72
				l-4.203-5.598c12.074-9.064,20.262-13.345,20.605-13.523l3.226,6.212C152.173,110.853,144.188,115.038,132.624,123.72z"/>
		</g>
	</g>
</g>
</svg>