<?xml version="1.0" encoding="utf-8"?>
<!-- Generator: Adobe Illustrator 27.9.0, SVG Export Plug-In . SVG Version: 6.00 Build 0)  -->
<svg version="1.1" xmlns="http://www.w3.org/2000/svg" xmlns:xlink="http://www.w3.org/1999/xlink" x="0px" y="0px" width="1920px"
	 height="2167.519px" viewBox="0 0 1920 2167.519" enable-background="new 0 0 1920 2167.519" xml:space="preserve">
	<g id="bg">
		<g id="particles">
			<g>
				<g>
					<path stroke="#EF990F" stroke-width="7" stroke-miterlimit="10" d="M150.76,144.78c0,0-3.888,2.017-10.247,6.235"/>
					<path stroke="#EF990F" stroke-width="7" stroke-miterlimit="10" stroke-dasharray="24.1315,24.1315" d="
						M121.208,165.474c-36.215,30.251-92.22,95.269-87.139,205.456c6.273,136.022,235.308,208.318,403.825,218.42
						c86.044,5.158,171.911,12.87,257.443,23.568c183.653,22.972,475,48.979,663.567,13.979
						c2.373-0.44,629.081-145.488,449.24,377.85c-34.736,101.083-59.696,110.267-135.066,216.212
						c-117.406,165.032-184.755,360.555-119.781,552.383c0,0,51.493,238.469,428.585,428.134"/>
				</g>
			</g>
		</g>
	</g>
</svg>
