<?xml version="1.0" encoding="utf-8"?>
<!-- Generator: Adobe Illustrator 27.9.0, SVG Export Plug-In . SVG Version: 6.00 Build 0)  -->
<svg version="1.1" xmlns="http://www.w3.org/2000/svg" xmlns:xlink="http://www.w3.org/1999/xlink" x="0px" y="0px"
	 width="2021.765px" height="1672.177px" viewBox="0 0 2021.765 1672.177" enable-background="new 0 0 2021.765 1672.177"
	 xml:space="preserve">
<g id="bg">
		<line display="none" fill="none" stroke="#005BBC" stroke-width="3" stroke-miterlimit="10" x1="228.765" y1="495.307" x2="2148.765" y2="495.307"/>
</g>
<g id="board">
	<g>
		<path display="none" opacity="0.4" d="M1755.664,43.096H210.122C94.075,43.096,0,137.17,0,253.218v904.053
			c0,116.047,94.075,210.122,210.122,210.122h296.362v304.783l476.409-304.783h772.77c116.048,0,210.124-94.075,210.124-210.122
			V253.218C1965.789,137.17,1871.713,43.096,1755.664,43.096z"/>
		<path fill="#FFFFFF" d="M1811.641,9.157H266.098c-116.047,0-210.122,94.075-210.122,210.122v904.053
			c0,116.047,94.075,210.122,210.122,210.122h296.362v304.783l476.409-304.783h772.77c116.048,0,210.124-94.075,210.124-210.122
			V219.279C2021.765,103.231,1927.689,9.157,1811.641,9.157z"/>
	</g>
</g>

</svg>
